# xmcd CD database file
# Copyright (C) 1997 Ti Kan
# 
# Track frame offsets:
#     150
#     11537
#     30870
#     51182
#     67962
#     89457
#     108300
#     125212
#     142307
#     163875
# 
# Disc length: 2462 seconds
# 
# Revision: 1
# Processed by: cddbd v1.4b41PL1 Copyright (c) Steve Scherf et al.
# Submitted via: DiscPlay 4.0.3
# 
DISCID=89099c0a
DTITLE=Jerry Jeff Walker - A Man Must Carry On Volume One
DYEAR=1900
DGENRE=
TTITLE0=Stereo Chickens
TTITLE1=Don't Make You Wanna Dance?
TTITLE2=Roll On Down The Road
TTITLE3=Song For The Life
TTITLE4=Leavin' Texas
TTITLE5=Honky Tonk Music
TTITLE6=Railroad Lady
TTITLE7=Ro-deo-deo Cowboy
TTITLE8=Derby Day
TTITLE9=Long Afternoons
EXTD=
EXTT0=
EXTT1=
EXTT2=
EXTT3=
EXTT4=
EXTT5=
EXTT6=
EXTT7=
EXTT8=
EXTT9=
PLAYORDER=
